<?xml version="1.0" encoding="utf-8"?>
<!DOCTYPE svg PUBLIC "-//W3C//DTD SVG 1.1//EN" "http://www.w3.org/Graphics/SVG/1.1/DTD/svg11.dtd">
<svg version="1.1" id="图形" xmlns="http://www.w3.org/2000/svg" xmlns:xlink="http://www.w3.org/1999/xlink" x="0px" y="0px" width="1024px" height="1024px" viewBox="0 0 1024 1024" enable-background="new 0 0 1024 1024" xml:space="preserve">
  <path fill="#272636" d="M608 44c-17.696 0-32 14.304-32 32L576 428c0 17.696 14.304 32 32 32s32-14.304 32-32l0-352C640 58.304 625.696 44 608 44zM416 44c-17.696 0-32 14.304-32 32L384 428c0 17.696 14.304 32 32 32s32-14.304 32-32l0-352C448 58.304 433.696 44 416 44zM928 588l-160 0L768 652c0 52.928-42.72 96-95.264 96L352 748C299.072 748 256 704.928 256 652l0-64L96 588C78.304 588 64 573.696 64 556s14.304-32 32-32l832 0c17.696 0 32 14.304 32 32S945.696 588 928 588zM320 652c0 17.632 14.368 32 32 32l320.736 0C690.272 684 704 669.952 704 652l0-64L320 588 320 652zM736.128-148 288.064-148c-52.928 0-96 43.072-96 96L192.064 428.48c0 17.664 14.336 32 32 32s32-14.336 32-32L256.064-52c0-17.664 14.368-32 32-32l448.064 0c17.664 0 32 14.336 32 32L768.128 427.168c0 17.664 14.304 32 32 32s32-14.336 32-32L832.128-52C832.128-104.928 789.056-148 736.128-148z" transform="translate(0, 812) scale(1, -1)"/>
</svg>
