<?xml version="1.0" standalone="no"?><!DOCTYPE svg PUBLIC "-//W3C//DTD SVG 1.1//EN" "http://www.w3.org/Graphics/SVG/1.1/DTD/svg11.dtd"><svg t="1504767296617" class="icon" style="" viewBox="0 0 1024 1024" version="1.1" xmlns="http://www.w3.org/2000/svg" p-id="1558" xmlns:xlink="http://www.w3.org/1999/xlink" width="32" height="32"><defs><style type="text/css"></style></defs><path d="M497.376 277.952l131.648 146.272v504.672c0 14.624-7.328 21.952-21.952 21.952H168.224c-14.624 0-21.952-7.328-21.952-21.952V299.872c0-7.328 7.328-21.952 21.952-21.952h329.152zM533.952 204.8H168.224c-51.2 0-95.072 43.872-95.072 95.072v629.024c0 51.2 43.872 95.072 95.072 95.072h431.552c51.2 0 95.072-43.872 95.072-95.072V394.944l-160.928-190.176z" p-id="1559"></path><path d="M431.552 292.576v182.848h212.128v-73.152h-175.552l36.576 36.576V292.576z" p-id="1560"></path><path d="M804.576 863.072h14.624c71.392 0 131.648-60.256 131.648-131.648V205.632L769.888 0H402.272c-62.08 0-113.632 42.464-123.84 103.712l72.16 12.032c4.256-25.536 24.96-42.592 51.712-42.592h351.072l-27.456-12.416 160.928 182.848-9.12-24.16v512c0 31.008-27.52 58.528-58.528 58.528h-14.624v73.152z" p-id="1561"></path><path d="M665.6 51.2v219.424h197.472V197.472h-160.928l36.576 36.576V51.2z" p-id="1562"></path></svg>