<?xml version="1.0" standalone="no"?><!DOCTYPE svg PUBLIC "-//W3C//DTD SVG 1.1//EN" "http://www.w3.org/Graphics/SVG/1.1/DTD/svg11.dtd"><svg t="1504766366052" class="icon" style="" viewBox="0 0 1170 1024" version="1.1" xmlns="http://www.w3.org/2000/svg" p-id="1455" xmlns:xlink="http://www.w3.org/1999/xlink" width="36.5625" height="32"><defs><style type="text/css"></style></defs><path d="M1096.630857 439.296H219.428571a73.142857 73.142857 0 0 0-69.558857 50.761143L73.362286 725.796571V73.947429h365.568c0 80.749714 65.389714 146.139429 146.066285 146.139428h365.421715v146.139429h73.069714V220.086857a73.142857 73.142857 0 0 0-73.069714-73.142857H584.923429a73.142857 73.142857 0 0 1-73.069715-73.069714A72.996571 72.996571 0 0 0 438.857143 0.877714H73.362286a73.142857 73.142857 0 0 0-73.069715 72.996572V950.857143a73.142857 73.142857 0 0 0 73.142858 72.996571h876.836571a73.142857 73.142857 0 0 0 69.705143-50.761143l149.577143-460.653714a73.142857 73.142857 0 0 0-72.923429-73.142857zM954.148571 950.857143H73.362286L215.771429 512.438857h880.64L954.221714 950.857143z" p-id="1456"></path></svg>