<?xml version="1.0" encoding="utf-8"?>
<!-- Generator: Adobe Illustrator 15.0.0, SVG Export Plug-In . SVG Version: 6.00 Build 0)  -->
<!DOCTYPE svg PUBLIC "-//W3C//DTD SVG 1.1//EN" "http://www.w3.org/Graphics/SVG/1.1/DTD/svg11.dtd">
<svg version="1.1" id="图形" xmlns="http://www.w3.org/2000/svg" xmlns:xlink="http://www.w3.org/1999/xlink" x="0px" y="0px"
	 width="1024px" height="1024px" viewBox="0 0 1024 1024" enable-background="new 0 0 1024 1024" xml:space="preserve">
<path display="none" fill="#272636" d="M456.575,949.568L72.576,537.472c-11.425-12.225-11.456-31.2-0.129-43.521l384-416.224
	c8.992-9.695,22.943-12.928,35.2-8.096C503.936,74.432,512,86.24,512,99.424V224c0,17.664-14.337,32-32,32
	c-17.696,0-32-14.336-32-32v-42.688l-308.384,334.24L448,846.464V608c0-17.696,14.304-32,32-32
	c174.814,0,310.848,62.336,390.56,111.168C826.783,572.415,718.592,384.031,480,384.031c-17.696,0-32-14.336-32-32
	c0-17.664,14.304-32,32-32c163.68,0,298.72,77.024,390.592,222.815c68,107.904,88.063,214.688,88.896,219.2
	c2.465,13.504-3.936,27.071-15.936,33.729c-12,6.688-26.88,4.96-37.056-4.288C904.896,790.048,750.56,652.352,512,640.768v286.977
	c0,13.152-8.032,24.96-20.288,29.792c-3.776,1.504-7.776,2.208-11.712,2.208C471.296,959.743,462.752,956.192,456.575,949.568z"/>
<path d="M660.347,529.371l33.008,191.684c0,0,24.591-25.225,44.637-42.626l44.31,59.239c1.88,2.317,5.64,2.535,8.721,0.48
	l18.887-13.946c3.038-2.186,4.088-5.967,2.208-8.263l-43.063-57.708c22.472-9.071,59.588-19.497,59.588-19.497L660.347,529.371
	L660.347,529.371z"/>
<path d="M252.91,787.311c-11.87,0-23.827-1.421-35.631-4.263l5.246-21.772c33.663,8.197,68.419,2.536,97.929-15.761
	c30.473-18.907,51.763-48.942,59.896-84.616l21.813,5.005c-9.464,41.511-34.318,76.573-69.927,98.65
	C307.972,779.55,280.672,787.311,252.91,787.311z"/>
<path stroke="#333333" stroke-width="1.043" stroke-miterlimit="10" d="M666.293,688.966"/>
<path d="M530.031,735.7c-167.432,0-303.659-108.925-303.659-242.827c0-133.888,136.227-242.813,303.681-242.813
	c167.391,0,303.617,108.947,303.617,242.835c0,37.689-10.45,73.789-31.084,107.32l-19.063-11.694
	c18.406-29.968,27.72-62.101,27.72-95.626c0-121.56-126.172-220.452-281.213-220.452c-155.08,0-281.275,98.87-281.275,220.429
	c0,121.552,126.172,220.442,281.253,220.442c47.253,0,93.921-9.355,134.907-27.018l8.854,20.548
	C630.029,725.732,580.322,735.7,530.031,735.7z"/>
<path d="M294.442,726.169c-61.555,0-109.755-33.574-109.755-76.463c0-42.888,48.2-76.507,109.755-76.507
	c61.512,0,109.733,33.62,109.733,76.507C404.175,692.595,355.954,726.169,294.442,726.169z M294.442,595.583
	c-47.391,0-87.371,24.789-87.371,54.123c0,29.336,39.981,54.08,87.371,54.08c47.348,0,87.349-24.745,87.349-54.08
	C381.791,620.372,341.789,595.583,294.442,595.583z"/>
</svg>
