<?xml version="1.0" encoding="utf-8"?>
<!-- Generator: Adobe Illustrator 15.0.0, SVG Export Plug-In . SVG Version: 6.00 Build 0)  -->
<!DOCTYPE svg PUBLIC "-//W3C//DTD SVG 1.1//EN" "http://www.w3.org/Graphics/SVG/1.1/DTD/svg11.dtd">
<svg version="1.1" id="图形" xmlns="http://www.w3.org/2000/svg" xmlns:xlink="http://www.w3.org/1999/xlink" x="0px" y="0px"
	 width="1024px" height="1024px" viewBox="0 0 1024 1024" enable-background="new 0 0 1024 1024" xml:space="preserve">
<path fill="#272636" d="M544,959.743c-3.936,0-7.936-0.704-11.712-2.208C520.032,952.703,512,940.896,512,927.743V640.768
	c-238.56,11.584-392.896,149.28-394.496,150.72c-10.176,9.248-25.056,10.977-37.056,4.288c-12-6.656-18.4-20.224-15.936-33.728
	c0.832-4.513,20.896-111.296,88.896-219.2C245.28,397.056,380.32,320.031,544,320.031c17.696,0,32,14.336,32,32s-14.304,32-32,32
	c-238.592,0-346.784,188.384-390.56,303.137C233.152,638.336,369.184,576,544,576c17.696,0,32,14.304,32,32v238.464l308.384-330.912
	L576,181.312V224c0,17.664-14.304,32-32,32c-17.664,0-32-14.336-32-32V99.424c0-13.185,8.064-24.992,20.352-29.792
	c12.257-4.832,26.208-1.6,35.2,8.096l384,416.224c11.328,12.32,11.296,31.296-0.128,43.521l-384,412.096
	C561.248,956.192,552.704,959.743,544,959.743z"/>
</svg>
