<?xml version="1.0" standalone="no"?><!DOCTYPE svg PUBLIC "-//W3C//DTD SVG 1.1//EN" "http://www.w3.org/Graphics/SVG/1.1/DTD/svg11.dtd"><svg t="1504767409327" class="icon" style="" viewBox="0 0 1024 1024" version="1.1" xmlns="http://www.w3.org/2000/svg" p-id="7342" xmlns:xlink="http://www.w3.org/1999/xlink" width="32" height="32"><defs><style type="text/css"></style></defs><path d="M816.274286 37.302857H206.921143C133.705143 37.302857 73.874286 98.304 73.874286 172.909714v678.326857c0 74.605714 59.830857 135.68 132.900571 135.68h611.108572c73.142857 0 132.900571-61.074286 132.900571-135.68V172.909714C949.174857 98.304 889.417143 37.302857 816.274286 37.302857z m-543.012572 67.803429h478.281143v259.437714H273.261714V105.106286z m609.499429 746.057143a67.291429 67.291429 0 0 1-66.413714 67.876571H206.848a67.291429 67.291429 0 0 1-66.413714-67.803429V172.909714a67.291429 67.291429 0 0 1 66.413714-67.803428v327.314285h611.108571V105.106286c36.571429 0 66.413714 30.500571 66.413715 67.803428v678.326857h-1.609143z" p-id="7343"></path><path d="M651.922286 145.846857a33.645714 33.645714 0 0 0-33.206857 33.865143V293.302857a33.645714 33.645714 0 0 0 33.206857 33.938286 33.645714 33.645714 0 0 0 33.206857-33.938286V179.712a33.645714 33.645714 0 0 0-33.206857-33.865143z" p-id="7344"></path></svg>