<?xml version="1.0" encoding="utf-8"?>
<!-- Generator: Adobe Illustrator 15.0.0, SVG Export Plug-In . SVG Version: 6.00 Build 0)  -->
<!DOCTYPE svg PUBLIC "-//W3C//DTD SVG 1.1//EN" "http://www.w3.org/Graphics/SVG/1.1/DTD/svg11.dtd">
<svg version="1.1" id="图形" xmlns="http://www.w3.org/2000/svg" xmlns:xlink="http://www.w3.org/1999/xlink" x="0px" y="0px"
	 width="1024px" height="1024px" viewBox="0 0 1024 1024" enable-background="new 0 0 1024 1024" xml:space="preserve">
<path fill="#272636" d="M456.576,949.568l-384-412.096c-11.424-12.225-11.456-31.2-0.128-43.521l384-416.224
	c8.992-9.695,22.943-12.928,35.2-8.096C503.936,74.432,512,86.24,512,99.424V224c0,17.664-14.336,32-32,32
	c-17.696,0-32-14.336-32-32v-42.688l-308.384,334.24L448,846.464V608c0-17.696,14.304-32,32-32
	c174.815,0,310.848,62.336,390.56,111.168C826.784,572.415,718.592,384.031,480,384.031c-17.696,0-32-14.336-32-32s14.304-32,32-32
	c163.68,0,298.72,77.024,390.592,222.816c68,107.904,88.063,214.688,88.896,219.2c2.465,13.504-3.936,27.071-15.936,33.728
	c-12,6.688-26.88,4.96-37.056-4.288C904.896,790.048,750.56,652.352,512,640.768v286.976c0,13.152-8.032,24.96-20.288,29.792
	c-3.776,1.504-7.776,2.208-11.712,2.208C471.296,959.743,462.752,956.192,456.576,949.568z"/>
</svg>
