<?xml version="1.0" encoding="utf-8"?>
<!-- Generator: Adobe Illustrator 15.0.0, SVG Export Plug-In . SVG Version: 6.00 Build 0)  -->
<!DOCTYPE svg PUBLIC "-//W3C//DTD SVG 1.1//EN" "http://www.w3.org/Graphics/SVG/1.1/DTD/svg11.dtd">
<svg version="1.1" id="图层_1" xmlns="http://www.w3.org/2000/svg" xmlns:xlink="http://www.w3.org/1999/xlink" x="0px" y="0px"
	 width="32px" height="32px" viewBox="0 0 32 32" enable-background="new 0 0 32 32" xml:space="preserve">
<g display="none">
	
		<path display="inline" fill="none" stroke="#000000" stroke-width="2" stroke-linecap="round" stroke-linejoin="round" stroke-miterlimit="10" d="
		M18.915,6.488c3.438,3.445,3.438,9.03,0,12.475c-3.436,3.445-9.008,3.445-12.444,0c-3.438-3.445-3.438-9.03,0-12.475
		C9.907,3.042,15.479,3.042,18.915,6.488z"/>
	
		<line display="inline" fill="none" stroke="#000000" stroke-width="2" stroke-linecap="round" stroke-linejoin="round" stroke-miterlimit="10" x1="19.091" y1="19.077" x2="27.925" y2="27.934"/>
	
		<line display="inline" fill="none" stroke="#000000" stroke-width="2" stroke-linecap="round" stroke-linejoin="round" stroke-miterlimit="10" x1="16.721" y1="12.707" x2="9.104" y2="12.707"/>
	
		<line display="inline" fill="none" stroke="#000000" stroke-width="2" stroke-linecap="round" stroke-linejoin="round" stroke-miterlimit="10" x1="12.912" y1="8.898" x2="12.912" y2="16.514"/>
</g>
<g>
	<path fill="none" stroke="#000000" stroke-width="2" stroke-linecap="round" stroke-linejoin="round" stroke-miterlimit="10" d="
		M19.02,6.535c3.447,3.459,3.447,9.063,0,12.521c-3.451,3.459-9.043,3.459-12.492,0c-3.449-3.457-3.449-9.062,0-12.521
		C9.977,3.077,15.569,3.077,19.02,6.535z"/>
	
		<line fill="none" stroke="#000000" stroke-width="2" stroke-linecap="round" stroke-linejoin="round" stroke-miterlimit="10" x1="19.193" y1="19.171" x2="28.06" y2="28.06"/>
	
		<line fill="none" stroke="#000000" stroke-width="2" stroke-linecap="round" stroke-linejoin="round" stroke-miterlimit="10" x1="16.847" y1="12.812" x2="8.989" y2="12.812"/>
</g>
<g display="none">
	
		<polygon display="inline" fill="none" stroke="#000000" stroke-width="2" stroke-linecap="round" stroke-linejoin="round" stroke-miterlimit="10" points="
		24.832,30.273 7.188,30.273 5.793,5.687 26.205,5.687 	"/>
	
		<line display="inline" fill="none" stroke="#000000" stroke-width="2" stroke-linecap="round" stroke-linejoin="round" stroke-miterlimit="10" x1="26.494" y1="5.687" x2="29.979" y2="5.687"/>
	
		<line display="inline" fill="none" stroke="#000000" stroke-width="2" stroke-linecap="round" stroke-linejoin="round" stroke-miterlimit="10" x1="5.543" y1="5.687" x2="2.021" y2="5.687"/>
	
		<polyline display="inline" fill="none" stroke="#000000" stroke-width="2" stroke-linecap="round" stroke-linejoin="round" stroke-miterlimit="10" points="
		11.615,5.448 11.615,2.316 20.385,2.316 20.385,5.448 	"/>
	
		<line display="inline" fill="none" stroke="#000000" stroke-width="2" stroke-linecap="round" stroke-linejoin="round" stroke-miterlimit="10" x1="10.406" y1="9.389" x2="11.387" y2="26.662"/>
	
		<line display="inline" fill="none" stroke="#000000" stroke-width="2" stroke-linecap="round" stroke-linejoin="round" stroke-miterlimit="10" x1="21.561" y1="9.389" x2="20.58" y2="26.662"/>
	
		<line display="inline" fill="none" stroke="#000000" stroke-width="2" stroke-linecap="round" stroke-linejoin="round" stroke-miterlimit="10" x1="16" y1="9.389" x2="16" y2="26.662"/>
</g>
<g display="none">
	
		<polyline display="inline" fill="none" stroke="#000000" stroke-width="2" stroke-linecap="round" stroke-linejoin="round" stroke-miterlimit="10" points="
		26.185,5.086 26.185,28.012 5.682,28.012 5.682,0.053 21.059,0.053 	"/>
	
		<polygon display="inline" fill="none" stroke="#000000" stroke-width="2" stroke-linecap="round" stroke-linejoin="round" stroke-miterlimit="10" points="
		26.185,5.086 21.059,0.053 21.059,5.086 	"/>
	
		<line display="inline" fill="none" stroke="#000000" stroke-width="2" stroke-linecap="round" stroke-linejoin="round" stroke-miterlimit="10" x1="9.71" y1="15.122" x2="22.624" y2="15.122"/>
	
		<line display="inline" fill="none" stroke="#000000" stroke-width="2" stroke-linecap="round" stroke-linejoin="round" stroke-miterlimit="10" x1="9.71" y1="11.209" x2="22.624" y2="11.209"/>
	
		<line display="inline" fill="none" stroke="#000000" stroke-width="2" stroke-linecap="round" stroke-linejoin="round" stroke-miterlimit="10" x1="9.71" y1="19.036" x2="22.624" y2="19.036"/>
	
		<line display="inline" fill="none" stroke="#000000" stroke-width="2" stroke-linecap="round" stroke-linejoin="round" stroke-miterlimit="10" x1="9.71" y1="22.952" x2="22.624" y2="22.952"/>
</g>
</svg>
